<svg width="64" height="65" viewBox="0 0 64 65" fill="none" xmlns="http://www.w3.org/2000/svg">
<g id="vuesax/outline/arrow-down">
<path id="Vector" d="M30.5844 56.9566L14.3977 40.517C13.6244 39.7316 13.6244 38.4316 14.3977 37.6462C15.171 36.8607 16.451 36.8607 17.2244 37.6462L31.9977 52.6503L46.771 37.6462C47.5444 36.8607 48.8244 36.8607 49.5977 37.6462C50.371 38.4316 50.371 39.7316 49.5977 40.517L33.411 56.9566C33.011 57.3628 32.5044 57.5524 31.9977 57.5524C31.491 57.5524 30.9844 57.3628 30.5844 56.9566Z" fill="#FFE100"/>
<path id="Vector_2" d="M30 55.0604V9.47916C30 8.36874 30.9067 7.44791 32 7.44791C33.0933 7.44791 34 8.36874 34 9.47916V55.0604C34 56.1708 33.0933 57.0917 32 57.0917C30.9067 57.0917 30 56.1708 30 55.0604Z" fill="#FFE100"/>
</g>
</svg>
