<svg width="65" height="65" viewBox="0 0 65 65" fill="none" xmlns="http://www.w3.org/2000/svg">
<g id="vuesax/outline/arrow-down">
<path id="Vector" d="M31.1419 56.9566L14.9552 40.517C14.1819 39.7316 14.1819 38.4316 14.9552 37.6462C15.7286 36.8607 17.0086 36.8607 17.7819 37.6462L32.5552 52.6503L47.3286 37.6462C48.1019 36.8607 49.3819 36.8607 50.1552 37.6462C50.9286 38.4316 50.9286 39.7316 50.1552 40.517L33.9686 56.9566C33.5686 57.3628 33.0619 57.5524 32.5552 57.5524C32.0486 57.5524 31.5419 57.3628 31.1419 56.9566Z" fill="#142D47"/>
<path id="Vector_2" d="M30.5576 55.0604V9.47916C30.5576 8.36874 31.4643 7.44791 32.5576 7.44791C33.651 7.44791 34.5576 8.36874 34.5576 9.47916V55.0604C34.5576 56.1708 33.651 57.0917 32.5576 57.0917C31.4643 57.0917 30.5576 56.1708 30.5576 55.0604Z" fill="#142D47"/>
</g>
</svg>
